<svg height="512" viewBox="0 0 52 58" width="512" xmlns="http://www.w3.org/2000/svg">
    <g fill-rule="nonzero" fill="none">
        <rect fill="#af5b5e" height="58" rx="3" width="52"/>
        <path d="M7 7H5a1 1 0 00-1 1v44.96c.037.606.554 1.07 1.16 1.04h41.68A1.108 1.108 0 0048 52.96V8a1 1 0 00-1-1z"
              fill="#f5efca"/>
        <g fill="#CC9A9A">
            <path d="M42 31H18a1 1 0 010-2h24a1 1 0 010 2zM42 37H18a1 1 0 010-2h24a1 1 0 010 2zM42 43H18a1 1 0 010-2h24a1 1 0 010 2zM42 49H18a1 1 0 010-2h24a1 1 0 010 2zM14 31h-4a1 1 0 010-2h4a1 1 0 010 2zM14 37h-4a1 1 0 010-2h4a1 1 0 010 2zM14 43h-4a1 1 0 010-2h4a1 1 0 010 2zM14 49h-4a1 1 0 010-2h4a1 1 0 010 2z"/>
        </g>
        <path d="M15 18h-4a1 1 0 000 2h1v6a1 1 0 002 0v-6h1a1 1 0 000-2zM19.5 18a3.5 3.5 0 00-3.5 3.5v2a3.5 3.5 0 007 0v-2a3.5 3.5 0 00-3.5-3.5zm1.5 5.5a1.5 1.5 0 01-3 0v-2a1.5 1.5 0 013 0zM38.5 18a3.5 3.5 0 00-3.5 3.5v2a3.5 3.5 0 007 0v-2a3.5 3.5 0 00-3.5-3.5zm1.5 5.5a1.5 1.5 0 01-3 0v-2a1.5 1.5 0 013 0zM30 18h-1a2 2 0 00-2 2v5a2 2 0 002 2h1a4 4 0 004-4v-1a4 4 0 00-4-4zm2 5a2 2 0 01-2 2h-1v-5h1a2 2 0 012 2z"
              fill="#CC9A9A"/>
        <path d="M38.94 14H13.06a2.988 2.988 0 01-2.911-2.27l-.389-1.581a1 1 0 111.941-.478l.39 1.58a.992.992 0 00.969.749h25.88a.992.992 0 00.969-.75l.39-1.579a1 1 0 111.941.478l-.389 1.58A2.988 2.988 0 0138.94 14z"
              fill="#7f8c8d"/>
        <path d="M30 15h-8a2 2 0 110-4h8a2 2 0 110 4z" fill="#bdc3c7"/>
        <path d="M30 7h-8a1 1 0 010-2h8a1 1 0 010 2z" fill="#CC9A9A"/>
        <circle cx="10" cy="7" fill="#bdc3c7" r="3"/>
        <circle cx="42" cy="7" fill="#bdc3c7" r="3"/>
    </g>
</svg>
